<mxfile host="app.diagrams.net" agent="Mozilla/5.0 (Windows NT 10.0; Win64; x64) AppleWebKit/537.36 (KHTML, like Gecko) Chrome/120.0.0.0 Safari/537.36" version="24.7.12">
  <diagram name="第 1 页" id="bCXTh1x4wLrAhFunBMwv">
    <mxGraphModel dx="972" dy="458" grid="1" gridSize="10" guides="1" tooltips="1" connect="1" arrows="1" fold="1" page="1" pageScale="1" pageWidth="827" pageHeight="1169" math="0" shadow="0">
      <root>
        <mxCell id="0" />
        <mxCell id="1" parent="0" />
        <mxCell id="xnQJquUQLMHmK2BM4L3x-4" value="" style="edgeStyle=orthogonalEdgeStyle;rounded=0;orthogonalLoop=1;jettySize=auto;html=1;" edge="1" parent="1" source="xnQJquUQLMHmK2BM4L3x-1" target="xnQJquUQLMHmK2BM4L3x-2">
          <mxGeometry relative="1" as="geometry" />
        </mxCell>
        <mxCell id="xnQJquUQLMHmK2BM4L3x-1" value="stage1" style="rounded=0;whiteSpace=wrap;html=1;fillColor=#CCE5FF;" vertex="1" parent="1">
          <mxGeometry x="40" y="120" width="120" height="40" as="geometry" />
        </mxCell>
        <mxCell id="xnQJquUQLMHmK2BM4L3x-5" value="" style="edgeStyle=orthogonalEdgeStyle;rounded=0;orthogonalLoop=1;jettySize=auto;html=1;" edge="1" parent="1" source="xnQJquUQLMHmK2BM4L3x-2" target="xnQJquUQLMHmK2BM4L3x-3">
          <mxGeometry relative="1" as="geometry" />
        </mxCell>
        <mxCell id="xnQJquUQLMHmK2BM4L3x-2" value="stage2" style="rounded=0;whiteSpace=wrap;html=1;fillColor=#CCE5FF;" vertex="1" parent="1">
          <mxGeometry x="200" y="120" width="120" height="40" as="geometry" />
        </mxCell>
        <mxCell id="xnQJquUQLMHmK2BM4L3x-7" value="" style="edgeStyle=orthogonalEdgeStyle;rounded=0;orthogonalLoop=1;jettySize=auto;html=1;" edge="1" parent="1" source="xnQJquUQLMHmK2BM4L3x-3" target="xnQJquUQLMHmK2BM4L3x-6">
          <mxGeometry relative="1" as="geometry" />
        </mxCell>
        <mxCell id="xnQJquUQLMHmK2BM4L3x-3" value="stage3" style="rounded=0;whiteSpace=wrap;html=1;fillColor=#CCE5FF;" vertex="1" parent="1">
          <mxGeometry x="360" y="120" width="120" height="40" as="geometry" />
        </mxCell>
        <mxCell id="xnQJquUQLMHmK2BM4L3x-9" value="" style="edgeStyle=orthogonalEdgeStyle;rounded=0;orthogonalLoop=1;jettySize=auto;html=1;" edge="1" parent="1" source="xnQJquUQLMHmK2BM4L3x-6" target="xnQJquUQLMHmK2BM4L3x-8">
          <mxGeometry relative="1" as="geometry" />
        </mxCell>
        <mxCell id="xnQJquUQLMHmK2BM4L3x-6" value="stage4" style="rounded=0;whiteSpace=wrap;html=1;fillColor=#CCE5FF;" vertex="1" parent="1">
          <mxGeometry x="520" y="120" width="120" height="40" as="geometry" />
        </mxCell>
        <mxCell id="xnQJquUQLMHmK2BM4L3x-14" value="" style="edgeStyle=orthogonalEdgeStyle;rounded=0;orthogonalLoop=1;jettySize=auto;html=1;" edge="1" parent="1" source="xnQJquUQLMHmK2BM4L3x-8">
          <mxGeometry relative="1" as="geometry">
            <mxPoint x="880" y="140" as="targetPoint" />
          </mxGeometry>
        </mxCell>
        <mxCell id="xnQJquUQLMHmK2BM4L3x-8" value="avgpool + FN" style="rounded=0;whiteSpace=wrap;html=1;" vertex="1" parent="1">
          <mxGeometry x="680" y="120" width="120" height="40" as="geometry" />
        </mxCell>
        <mxCell id="xnQJquUQLMHmK2BM4L3x-10" value="light stage4" style="rounded=0;whiteSpace=wrap;html=1;fillColor=#FFCCE6;" vertex="1" parent="1">
          <mxGeometry x="520" y="200" width="120" height="40" as="geometry" />
        </mxCell>
        <mxCell id="xnQJquUQLMHmK2BM4L3x-12" value="" style="endArrow=classic;html=1;rounded=0;exitX=1;exitY=0.5;exitDx=0;exitDy=0;entryX=0.5;entryY=1;entryDx=0;entryDy=0;" edge="1" parent="1" source="xnQJquUQLMHmK2BM4L3x-10" target="xnQJquUQLMHmK2BM4L3x-8">
          <mxGeometry width="50" height="50" relative="1" as="geometry">
            <mxPoint x="390" y="270" as="sourcePoint" />
            <mxPoint x="440" y="220" as="targetPoint" />
            <Array as="points">
              <mxPoint x="740" y="220" />
            </Array>
          </mxGeometry>
        </mxCell>
        <mxCell id="xnQJquUQLMHmK2BM4L3x-15" value="&lt;b&gt;output&lt;/b&gt;&lt;div&gt;&lt;br&gt;&lt;/div&gt;&lt;div&gt;&lt;b&gt;stage3 output&lt;/b&gt;&lt;/div&gt;" style="text;html=1;align=center;verticalAlign=middle;resizable=0;points=[];autosize=1;strokeColor=none;fillColor=none;" vertex="1" parent="1">
          <mxGeometry x="875" y="103" width="100" height="60" as="geometry" />
        </mxCell>
        <mxCell id="xnQJquUQLMHmK2BM4L3x-16" value="&lt;b&gt;将卷积和 ResNet 替换为深度可分离卷积&lt;/b&gt;" style="text;html=1;align=center;verticalAlign=middle;resizable=0;points=[];autosize=1;strokeColor=none;fillColor=none;" vertex="1" parent="1">
          <mxGeometry x="470" y="260" width="240" height="30" as="geometry" />
        </mxCell>
        <mxCell id="xnQJquUQLMHmK2BM4L3x-24" value="" style="edgeStyle=orthogonalEdgeStyle;rounded=0;orthogonalLoop=1;jettySize=auto;html=1;" edge="1" parent="1" source="xnQJquUQLMHmK2BM4L3x-17" target="xnQJquUQLMHmK2BM4L3x-18">
          <mxGeometry relative="1" as="geometry" />
        </mxCell>
        <mxCell id="xnQJquUQLMHmK2BM4L3x-17" value="resNet50" style="rounded=0;whiteSpace=wrap;html=1;fillColor=#CCE5FF;" vertex="1" parent="1">
          <mxGeometry x="180" y="370" width="120" height="40" as="geometry" />
        </mxCell>
        <mxCell id="xnQJquUQLMHmK2BM4L3x-18" value="classifer" style="rounded=0;whiteSpace=wrap;html=1;fillColor=#CCE5FF;" vertex="1" parent="1">
          <mxGeometry x="340" y="370" width="120" height="40" as="geometry" />
        </mxCell>
        <mxCell id="xnQJquUQLMHmK2BM4L3x-19" value="light classifer" style="rounded=0;whiteSpace=wrap;html=1;fillColor=#FFCCE6;" vertex="1" parent="1">
          <mxGeometry x="340" y="450" width="120" height="40" as="geometry" />
        </mxCell>
        <mxCell id="xnQJquUQLMHmK2BM4L3x-20" value="&lt;b&gt;ouput&lt;/b&gt;&lt;div&gt;&lt;b&gt;&lt;br&gt;&lt;/b&gt;&lt;/div&gt;&lt;div&gt;&lt;b&gt;stage output&lt;/b&gt;&lt;/div&gt;" style="text;html=1;align=center;verticalAlign=middle;resizable=0;points=[];autosize=1;strokeColor=none;fillColor=none;" vertex="1" parent="1">
          <mxGeometry x="505" y="400" width="100" height="60" as="geometry" />
        </mxCell>
        <mxCell id="xnQJquUQLMHmK2BM4L3x-21" value="" style="endArrow=classic;html=1;rounded=0;exitX=1;exitY=0.5;exitDx=0;exitDy=0;entryX=0.525;entryY=0.008;entryDx=0;entryDy=0;entryPerimeter=0;" edge="1" parent="1" source="xnQJquUQLMHmK2BM4L3x-18" target="xnQJquUQLMHmK2BM4L3x-20">
          <mxGeometry width="50" height="50" relative="1" as="geometry">
            <mxPoint x="340" y="320" as="sourcePoint" />
            <mxPoint x="390" y="270" as="targetPoint" />
            <Array as="points">
              <mxPoint x="558" y="390" />
            </Array>
          </mxGeometry>
        </mxCell>
        <mxCell id="xnQJquUQLMHmK2BM4L3x-22" value="" style="endArrow=classic;html=1;rounded=0;exitX=1;exitY=0.75;exitDx=0;exitDy=0;entryX=0.555;entryY=1.042;entryDx=0;entryDy=0;entryPerimeter=0;" edge="1" parent="1" source="xnQJquUQLMHmK2BM4L3x-19" target="xnQJquUQLMHmK2BM4L3x-20">
          <mxGeometry width="50" height="50" relative="1" as="geometry">
            <mxPoint x="340" y="320" as="sourcePoint" />
            <mxPoint x="390" y="270" as="targetPoint" />
            <Array as="points">
              <mxPoint x="561" y="480" />
            </Array>
          </mxGeometry>
        </mxCell>
        <mxCell id="xnQJquUQLMHmK2BM4L3x-25" value="" style="endArrow=classic;html=1;rounded=0;exitX=0.5;exitY=1;exitDx=0;exitDy=0;entryX=0;entryY=0.5;entryDx=0;entryDy=0;" edge="1" parent="1" source="xnQJquUQLMHmK2BM4L3x-3" target="xnQJquUQLMHmK2BM4L3x-10">
          <mxGeometry width="50" height="50" relative="1" as="geometry">
            <mxPoint x="460" y="270" as="sourcePoint" />
            <mxPoint x="510" y="220" as="targetPoint" />
            <Array as="points">
              <mxPoint x="420" y="220" />
            </Array>
          </mxGeometry>
        </mxCell>
        <mxCell id="xnQJquUQLMHmK2BM4L3x-26" value="" style="endArrow=classic;html=1;rounded=0;exitX=0.5;exitY=1;exitDx=0;exitDy=0;entryX=0;entryY=0.5;entryDx=0;entryDy=0;" edge="1" parent="1" source="xnQJquUQLMHmK2BM4L3x-17" target="xnQJquUQLMHmK2BM4L3x-19">
          <mxGeometry width="50" height="50" relative="1" as="geometry">
            <mxPoint x="440" y="320" as="sourcePoint" />
            <mxPoint x="490" y="270" as="targetPoint" />
            <Array as="points">
              <mxPoint x="240" y="470" />
            </Array>
          </mxGeometry>
        </mxCell>
        <mxCell id="xnQJquUQLMHmK2BM4L3x-27" value="&lt;b&gt;将卷积替换为深度可分离卷积&lt;/b&gt;" style="text;html=1;align=center;verticalAlign=middle;resizable=0;points=[];autosize=1;strokeColor=none;fillColor=none;" vertex="1" parent="1">
          <mxGeometry x="304" y="500" width="180" height="30" as="geometry" />
        </mxCell>
      </root>
    </mxGraphModel>
  </diagram>
</mxfile>
